<svg xmlns="http://www.w3.org/2000/svg" viewBox="0 0 64 64" width="64" height="64" fill="none" stroke="black" stroke-width="2" stroke-linecap="round" stroke-linejoin="round">
  <!-- Lightbulb for ideas -->
  <path d="M32 10c-7 0-12 5-12 11 0 4 2 7 4 9 2 2 4 4 4 7v3h8v-3c0-3 2-5 4-7 2-2 4-5 4-9 0-6-5-11-12-11z" />
  
  <!-- Bulb base -->
  <rect x="28" y="40" width="8" height="4" />
  <line x1="28" y1="44" x2="36" y2="44" />
  <line x1="28" y1="46" x2="36" y2="46" />
  
  <!-- Team heads around the bulb -->
  <circle cx="16" cy="20" r="3" />
  <circle cx="48" cy="20" r="3" />
  <circle cx="32" cy="4" r="3" />
  
  <!-- Connecting lines for collaboration -->
  <line x1="19" y1="20" x2="26" y2="16" />
  <line x1="45" y1="20" x2="38" y2="16" />
  <line x1="32" y1="7" x2="32" y2="10" />
</svg>
