<svg xmlns="http://www.w3.org/2000/svg" viewBox="0 0 600 150">
  <defs>
    <!-- Refined pink gradient with multiple color stops -->
    <linearGradient id="monogramGradient" x1="0%" y1="0%" x2="100%" y2="100%">
      <stop offset="0%" style="stop-color:#FF0066"/>
      <stop offset="50%" style="stop-color:#FF69B4"/>
      <stop offset="100%" style="stop-color:#FFC0CB"/>
    </linearGradient>
    
    <!-- Subtle pink background gradient -->
    <linearGradient id="bgGradient" x1="0%" y1="0%" x2="100%" y2="100%">
      <stop offset="0%" style="stop-color:rgba(255,0,102,0.1)"/>
      <stop offset="100%" style="stop-color:rgba(255,192,203,0.1)"/>
    </linearGradient>
    
    <!-- Clip path for overlap effect -->
    <clipPath id="overlayClip">
      <path d="M10,15 L40,15 L70,70 L40,70 Z"/>
    </clipPath>
  </defs>

  <!-- Scale entire design 1.5x -->
  <g transform="scale(1.5)">
    <!-- Background shape for depth -->
    <rect x="20" y="15" width="70" height="70" 
          fill="url(#bgGradient)" 
          rx="5" 
          opacity="0.8"/>

    <!-- Monogram Group with enhanced styling -->
    <g transform="translate(20,15)">
      <!-- Modern M shape with rounded corners -->
      <path d="M10,70 L25,20 Q26,18 27,20 L40,45 Q41,47 42,45 L55,20 Q56,18 57,20 L70,70" 
            stroke="url(#monogramGradient)" 
            stroke-width="8" 
            fill="none" 
            stroke-linecap="round"
            stroke-linejoin="round"/>
      
      <!-- Dynamic C shape with varying stroke width -->
      <path d="M65,35 A30,30 0 1,0 65,65" 
            stroke="url(#monogramGradient)" 
            stroke-width="8" 
            fill="none" 
            stroke-linecap="round"
            style="filter: drop-shadow(0 2px 3px rgba(0,0,0,0.2))"/>
      
      <!-- Decorative dots in pink tones -->
      <circle cx="70" cy="35" r="3" fill="#FF0066"/>
      <circle cx="70" cy="65" r="3" fill="#FFC0CB"/>
    </g>
  </g>
</svg>
